<svg width="218" height="102" viewBox="0 0 218 102" fill="none" xmlns="http://www.w3.org/2000/svg">
<path d="M132.526 57.4273C133.525 58.8046 134.07 60.5491 134.07 62.5691C134.07 66.0582 132.98 68.7209 130.709 70.4655C128.438 72.21 125.532 73.1282 121.989 73.1282H106.729V38.1455H120.627C124.351 38.1455 127.257 38.88 129.347 40.4409C131.436 42.0018 132.435 44.4809 132.435 47.7864C132.435 50.5409 131.072 52.6527 128.438 54.3055C130.164 55.04 131.527 56.05 132.526 57.4273ZM114.632 51.9182H120.99C121.898 51.9182 122.625 51.6427 123.261 51.0918C123.897 50.5409 124.26 49.7146 124.26 48.6127C124.26 46.1336 122.988 44.8482 120.536 44.8482H114.632V51.9182ZM124.623 65.5073C125.532 64.7727 125.895 63.6709 125.895 62.2018C125.895 60.7327 125.441 59.7227 124.532 59.08C123.624 58.4373 122.534 58.1618 121.172 58.1618H114.632V66.6091H121.353C122.625 66.6091 123.715 66.2418 124.623 65.5073Z" fill="#47474A"/>
<path d="M137.34 36.9518H144.879V43.0118H137.34V36.9518ZM137.522 46.96H144.879L144.97 73.0364H137.612V46.96H137.522Z" fill="#47474A"/>
<path d="M169.858 47.6946C171.766 48.8882 172.674 50.7246 172.674 52.9282V73.3118C172.674 76.9846 171.584 79.7391 169.404 81.7591C167.224 83.6873 164.045 84.6973 160.048 84.6973C157.959 84.6973 156.142 84.5136 154.507 84.2382C152.963 83.9627 151.692 83.5036 150.783 82.9527V76.0664C151.692 76.5255 153.054 76.9846 154.78 77.4436C156.506 77.9027 158.141 78.0864 159.685 78.0864C161.774 78.0864 163.318 77.6273 164.227 76.7091C165.135 75.7909 165.498 74.5055 165.498 72.8527V71.2918C163.863 72.8527 161.683 73.5873 159.231 73.5873C155.779 73.4036 153.054 72.21 151.147 70.0982C149.239 67.8946 148.331 64.6809 148.331 60.4573C148.331 54.9482 149.512 51.0918 151.873 48.8882C154.235 46.6846 157.687 45.5827 162.228 45.5827C165.407 45.8582 167.951 46.5009 169.858 47.6946ZM157.051 65.9664C158.05 67.3436 159.412 68.0782 161.047 68.0782C162.682 68.0782 164.136 67.7109 165.498 66.8846V54.6727C165.498 52.9282 164.227 52.01 161.592 52.01C157.596 52.01 155.597 54.7646 155.597 60.1818C155.507 62.6609 156.052 64.4973 157.051 65.9664Z" fill="#47474A"/>
<path d="M176.217 38.1455H181.667V73.0364H176.217V38.1455Z" fill="#F05E47"/>
<path d="M185.209 38.1455H196.745C207.281 38.1455 212.459 43.93 212.459 55.5909C212.459 67.2518 207.191 73.0364 196.745 73.0364H185.209V38.1455ZM196.109 68.2618C199.742 68.2618 202.467 67.2518 204.193 65.2318C205.919 63.2118 206.827 59.9982 206.827 55.6827C206.827 51.3673 205.919 48.1536 204.193 46.1336C202.467 44.1136 199.742 43.1036 196.109 43.1036H190.568V68.3536H196.109V68.2618Z" fill="#F05E47"/>
<path d="M14.4426 60.7327C15.351 62.4773 16.2593 64.13 17.2585 65.7827C23.526 64.5891 28.431 61.2836 32.1551 56.3255C34.7893 52.8364 39.9668 56.8764 37.3326 60.3655C32.9726 66.0582 27.5226 69.9146 21.1643 71.6591C21.9818 72.8527 22.8901 73.9545 23.7985 75.0564C27.5226 73.6791 30.2476 72.4855 32.3368 71.3836C35.4251 69.8227 39.7851 66.8846 43.3276 66.8846C44.9626 66.8846 46.7793 67.2518 48.6868 67.8946C57.5885 70.5573 65.1276 74.0464 74.211 75.7909C75.2101 74.5973 76.2093 73.3118 77.2085 72.0264C51.9568 67.0682 33.881 53.8464 33.881 29.1473C33.881 20.9755 36.9693 11.5182 48.2326 11.5182C57.316 11.5182 60.2226 17.5782 62.6751 24.8318C67.8526 39.89 74.5743 44.4809 90.1976 44.3891C92.196 36.4927 93.1951 28.1373 92.9226 19.2309C90.6518 17.3027 87.6543 15.5582 84.2026 13.9055C85.0201 16.5682 85.8376 19.3227 86.5643 22.2609C87.6543 26.4846 81.296 28.1373 80.2968 23.9136C79.2068 18.9555 77.7535 14.5482 76.3001 10.6C73.8476 9.77365 71.3043 9.0391 68.6701 8.39637C75.9368 18.4046 72.9393 33.2791 85.8376 30.8C90.1068 29.9736 91.2876 36.4927 87.0185 37.2273C59.8593 42.3691 76.5726 6.37637 48.1418 6.37637C32.4276 6.37637 28.976 19.0473 28.976 31.4427C28.976 35.0236 29.521 38.6964 29.521 41.5427C29.521 51.2755 23.6168 58.5291 14.4426 60.7327Z" fill="#47474A"/>
<path d="M37.7866 88.37C41.3291 91.0327 45.235 93.42 49.3225 95.6236C52.32 94.0627 57.6791 90.6655 57.8608 90.4818C56.9525 90.1146 56.2258 89.8391 55.8625 89.6555C52.5016 88.1864 49.05 86.4418 45.3258 86.1664C44.3266 86.0746 43.4183 86.1664 42.4191 86.4418C41.6016 86.7173 40.6933 87.0846 39.9666 87.4518C39.5125 87.6355 39.1491 87.8191 38.695 88.0946C38.6041 88.0027 37.8775 88.37 37.7866 88.37Z" fill="#F05E47"/>
<path d="M28.34 80.0145C29.6116 81.3 30.9741 82.5855 32.3366 83.8709L33.1541 83.4118C36.2425 81.8509 39.9666 79.1882 43.6 79.1882C45.235 79.1882 47.7783 79.5555 49.595 80.1982C54.9541 81.8509 59.4958 83.5955 64.6733 85.2482C65.4 84.6055 66.0358 84.1464 66.7625 83.5036C67.4891 82.8609 68.5791 81.7591 68.9425 81.3918C68.3066 81.2082 62.8566 79.28 61.585 78.8209C58.7691 77.8109 56.135 76.7091 53.3191 75.8827C50.5941 75.0564 47.415 73.8627 44.5991 73.8627C41.42 73.6791 38.695 75.1482 35.8791 76.5255C33.245 77.6273 30.8833 79.0045 28.34 80.0145Z" fill="#F05E47"/>
<path d="M12.5351 14.7318C9.81012 16.1091 7.53928 17.67 5.63178 19.2309C5.35928 28.1373 6.35845 36.5845 8.35678 44.4809C11.1726 43.0118 11.4451 40.1654 11.2634 34.84C11.0818 27.4945 10.8093 21.1591 12.5351 14.7318Z" fill="#F05E47"/>
<path d="M28.8851 8.67181C26.0693 9.40636 23.3443 10.1409 20.8918 11.0591C18.9843 14.9155 18.1668 18.7718 17.8943 22.4445C16.9859 32.6364 21.4368 46.1336 10.4459 50.8164C10.9001 52.1018 11.3543 53.3873 11.8993 54.5809C33.3359 48.2454 14.1701 23.5464 28.8851 8.67181Z" fill="#F05E47"/>
<path d="M88.6533 51.1836L88.835 50.7245H88.1083C80.115 50.1736 73.6658 48.1536 68.3975 44.7564C63.765 41.7264 60.7675 37.9618 59.1325 33.2791C58.5875 31.7182 58.1333 30.2491 57.77 28.78C55.7716 22.2609 54.4091 17.5782 48.2325 17.5782C42.3283 17.5782 39.4216 21.4345 39.4216 29.2391C40.1483 48.7964 54.0458 61.7427 80.66 67.7109H80.8416L81.1141 67.3436L81.2958 67.0682C81.5683 66.7009 81.75 66.2418 81.9316 65.8745C81.9316 65.8745 81.9316 65.8745 81.9316 65.7827C82.2041 65.2318 82.4766 64.7727 82.7491 64.2218C82.84 63.9464 83.0216 63.7627 83.1125 63.4873C83.2033 63.2118 83.385 62.9364 83.4758 62.7527L83.6575 62.4773L83.8391 62.11L84.0208 61.6509L83.2941 61.5591C72.2125 59.6309 62.8566 55.6827 56.2258 50.3573C48.7775 44.2973 45.235 36.0336 46.0525 26.3009C46.2341 24.5564 47.2333 23.9136 48.1416 23.9136C49.1408 23.9136 50.3216 24.74 50.7758 26.4845C54.5 42.3691 61.7666 52.9282 86.2008 56.6927H86.4733L86.655 56.2336L86.7458 56.1418L87.0183 55.4991C87.2908 54.9482 87.4725 54.3973 87.6541 53.8464C87.9266 53.2036 88.1083 52.5609 88.4716 51.7345L88.5625 51.5509L88.6533 51.1836Z" fill="#47474A"/>
</svg>
