<svg width="218" height="56" viewBox="0 0 218 56" fill="none" xmlns="http://www.w3.org/2000/svg">
<g clip-path="url(#clip0_730_2603)">
<path d="M44.4803 55.5H9.454C4.24655 55.5 0 51.1629 0 45.8514V10.1486C0 4.83714 4.24655 0.5 9.454 0.5H44.4803C49.6878 0.5 53.9343 4.83714 53.9343 10.1486V45.8514C53.9343 51.1629 49.6568 55.5 44.4803 55.5Z" fill="#300D38"/>
<path d="M47.0219 31.0171C46.9289 29.5086 46.216 27.6857 42.1554 28.88C40.0476 29.4771 38.1259 29.5086 37.2889 28.6914C37.196 28.5657 37.103 28.4086 37.01 28.2829C36.669 27.6543 36.855 26.6486 37.6299 25.2972C38.1878 24.3229 38.8388 24.0714 39.6137 24.0714C40.2646 24.0714 41.0085 24.1972 41.9075 24.1972C44.7282 24.1343 45.844 22.3114 45.6891 20.6771C45.6581 20.1743 45.0071 20.3314 43.7673 20.0486C42.5584 19.7343 41.5665 19.9229 41.2875 18.1314C41.2255 17.6286 40.5746 16.5286 39.0868 16.2771C38.0949 16.12 35.9871 15.1143 34.4062 16.3714L33.0114 15.7743C32.0815 15.5543 32.1435 16.1829 31.3066 16.5286C30.5007 16.8114 29.0128 16.0571 29.4158 17.0943C29.7567 17.9429 31.0896 19.0429 32.7324 18.5086C31.7405 23.5057 27.029 24.6686 23.0924 24.48C17.854 24.2914 13.7934 19.7657 13.9794 14.4543C14.0414 12.9143 13.5454 12.4743 13.0495 13.2914C12.9255 13.5114 12.7395 13.8886 12.6465 14.36C12.6155 14.5171 12.5536 14.7057 12.5226 14.8629C12.0886 17.0943 12.6155 21.5257 16.2422 24.4171C16.2422 24.4171 15.0333 25.4229 14.6303 27.3086C14.4134 28.3772 14.5063 29.2572 14.5683 29.6972C14.5993 29.8857 14.6303 30.0429 14.6303 30.0429C14.9713 31.6772 11.9646 32.8086 10.6318 33.0286C10.5388 33.0286 10.4458 33.06 10.3218 33.06C10.1358 33.06 9.94983 33.06 9.79484 33.06C9.57787 33.06 9.36089 33.0286 9.20591 32.9972C8.39999 32.9343 7.84205 33.06 7.3151 35.04C6.60218 37.8686 4.5254 37.24 4.02945 38.0257C3.22354 39.3143 4.43241 40.2572 5.92025 40.3514C6.81916 40.3829 7.84205 40.1629 8.58597 39.44C11.1587 37.0829 9.94983 36.0143 12.4916 36.2029C12.8325 36.2343 13.2045 36.2657 13.6694 36.3286C16.4901 36.7057 18.5049 37.3029 21.2946 34.2543C21.2946 34.2543 21.5116 33.8771 21.8526 33.6257C21.9766 33.5 22.1625 33.4057 22.3485 33.3114C22.4105 33.2486 22.7825 33.28 22.8445 33.28C23.9293 33.5629 26.3471 34.8829 29.0748 34.4114C30.1597 34.0029 31.1516 33.3743 31.9575 32.5571C31.9575 32.5571 32.3915 32.1486 32.6704 32.5257C33.0424 32.9343 33.3834 33.6257 33.8173 34.0971C34.8092 35.1657 34.8092 34.7257 36.886 33.8771C37.072 33.7829 37.3199 33.72 37.5679 33.5943C42.9613 31.5829 42.8374 30.9229 43.9222 33.1229C44.1082 33.5314 44.8211 33.5629 45.4721 33.28C46.371 32.9343 47.0839 32.18 47.0219 31.0171Z" fill="#FBA919"/>
<g opacity="0.1">
<path d="M30.1599 32.0229C28.7651 34.9143 23.7746 33.06 23.6506 32.4629C23.6816 32.0229 24.0226 31.0486 23.6816 31.3943C23.3716 31.74 22.3178 32.9972 21.9458 33.5C22.0698 33.3743 22.2558 33.28 22.4417 33.1857C22.5037 33.1229 22.8757 33.1543 22.9377 33.1543C24.0226 33.4372 26.4403 34.7572 29.168 34.2857C30.2529 33.8772 31.2448 33.2486 32.0507 32.4314C32.0507 32.4314 32.4847 32.0229 32.7637 32.4C32.7637 32.4 31.6168 30.4514 31.1518 29.6343C30.8729 29.2571 30.8419 30.64 30.1599 32.0229Z" fill="#414042"/>
</g>
<g opacity="0.1">
<path d="M36.8552 23.0972C36.3902 22.1857 34.1585 22.8143 35.1814 23.6C37.8471 25.58 35.2124 25.6429 37.0102 28.3143C36.6692 27.6857 36.8552 26.68 37.6301 25.3286C38.1881 24.3543 38.839 24.1029 39.6139 24.1029C39.6139 24.0714 37.3201 24.0086 36.8552 23.0972Z" fill="#414042"/>
</g>
<path d="M180.184 4.05144C182.881 4.05144 185.546 4.05144 188.274 4.05144C188.274 10.0543 188.274 16.0572 188.274 22.1857C188.739 21.5572 189.08 20.96 189.483 20.4572C191.095 18.54 193.203 17.4714 195.651 17.0314C198.41 16.5286 201.169 16.6857 203.773 17.8172C207.058 19.2 209.073 21.7771 210.127 25.1714C210.747 27.12 210.933 29.1629 210.964 31.1743C210.964 34.9771 210.964 38.78 210.995 42.5829C210.995 43.1171 211.088 43.6829 211.212 44.2172C211.429 45.0971 212.018 45.5371 212.886 45.5686C213.382 45.6 213.877 45.5686 214.435 45.5686C214.435 45.6943 214.466 45.8514 214.466 46.0086C214.466 47.9886 214.466 50 214.466 51.98C214.466 52.1686 214.342 52.5143 214.187 52.5143C211.491 53.0486 208.825 53.2057 206.314 51.8229C204.33 50.7229 203.432 48.8057 203.091 46.6057C202.936 45.6629 202.874 44.6886 202.874 43.7143C202.843 39.8486 202.874 35.9829 202.874 32.1171C202.874 30.7029 202.688 29.32 202.13 28C201.014 25.4229 198.472 23.9457 195.558 24.1657C191.405 24.5114 188.491 27.4971 188.429 31.7714C188.367 38.4029 188.398 45.0657 188.398 51.6657C188.398 51.9486 188.398 52.1686 188.398 52.4829C185.701 52.4829 183.036 52.4829 180.308 52.4829C180.184 36.3914 180.184 20.2686 180.184 4.05144Z" fill="#300D38"/>
<path d="M119.988 29.9171C118.655 24.1029 115.37 19.8914 109.852 17.6914C106.35 16.3086 102.723 16.1829 99.0965 17C93.4551 18.2571 89.3016 21.4629 87.0078 26.9314C85.086 31.3943 84.931 36.0771 86.0779 40.76C87.0698 44.8143 89.2396 48.1457 92.7732 50.4086C98.5076 54.0857 104.676 54.3686 110.968 52.2314C113.758 51.2886 116.083 49.4343 118.16 47.2343C116.517 45.6 114.905 43.9657 113.324 42.4571C112.27 43.2743 111.309 44.1857 110.193 44.8143C107.125 46.6686 103.808 46.7943 100.398 45.9143C97.7637 45.2543 95.7489 43.6829 94.54 41.1686C93.9511 39.9429 93.6101 38.6543 93.5791 37.1771C102.537 37.1771 111.464 37.1771 120.329 37.1771C120.577 34.82 120.546 32.4 119.988 29.9171ZM112.084 31.2686C105.947 31.2686 99.8715 31.2686 93.7961 31.2686C93.7961 30.1371 94.1991 29.1314 94.757 28.22C96.3998 25.6114 98.8486 24.26 101.793 23.7886C104.335 23.38 106.691 23.8514 108.83 25.3286C110.751 26.68 111.929 28.5029 112.084 30.9229C112.084 30.9857 112.084 31.08 112.084 31.2686Z" fill="#300D38"/>
<path d="M176.216 22.4057C176.061 22.5629 175.937 22.72 175.814 22.8457C174.264 24.48 172.714 26.1143 171.164 27.7486C166.236 22.3429 158.114 23.0972 154.302 27.6229C150.83 31.7714 151.016 38.8114 154.798 42.8029C158.61 46.8572 166.328 47.3286 171.133 42.1429C172.807 43.9343 174.512 45.6943 176.185 47.4857C173.52 50.4086 170.358 52.3886 166.514 53.1429C160.78 54.2429 155.449 53.2686 150.675 49.6543C146.553 46.48 144.259 42.2372 143.732 36.9886C143.205 31.7714 144.476 27.12 147.792 23.0657C150.551 19.6714 154.147 17.5972 158.393 16.7486C162.857 15.8686 167.165 16.3086 171.226 18.5086C173.117 19.4829 174.729 20.8343 176.216 22.4057Z" fill="#300D38"/>
<path d="M140.942 45.7572C140.942 48.2086 140.942 50.66 140.942 53.2057C140.229 53.3 139.485 53.4257 138.741 53.52C136.478 53.6772 134.185 53.6457 132.015 52.9543C128.636 51.8543 126.776 49.3714 126.095 45.9143C125.785 44.4057 125.661 42.8657 125.661 41.2943C125.599 36.14 125.63 31.0172 125.63 25.8629C125.63 25.6429 125.63 25.3914 125.63 25.0772C124.173 25.0772 122.778 25.0772 121.383 25.0772C121.383 22.5314 121.383 20.0486 121.383 17.4714C122.809 17.4714 124.173 17.4714 125.63 17.4714C125.63 12.9772 125.63 8.51429 125.63 4.05144C128.388 4.05144 131.085 4.05144 133.844 4.05144C133.844 8.48287 133.844 12.9143 133.844 17.44C136.416 17.44 138.896 17.44 141.438 17.44C141.438 19.9857 141.438 22.4686 141.438 25.0457C138.927 25.0457 136.447 25.0457 133.906 25.0457C133.906 25.2657 133.875 25.4229 133.875 25.58C133.875 30.86 133.875 36.1086 133.906 41.3886C133.906 41.9857 133.999 42.6143 134.123 43.2114C134.526 44.94 135.704 45.9143 137.439 45.9771C138.028 46.0086 138.586 46.0086 139.175 45.9771C139.764 45.9143 140.322 45.82 140.942 45.7572Z" fill="#300D38"/>
<path d="M70.6415 42.5514C70.6415 43.0857 70.5485 43.6514 70.4246 44.1857C70.2076 45.0657 69.6186 45.5057 68.7507 45.5371C68.2548 45.5686 67.7588 45.5371 67.2009 45.5371C67.2009 45.6629 67.1699 45.82 67.1699 45.9771C67.1699 47.9571 67.1699 49.9686 67.1699 51.9486C67.1699 52.1371 67.2939 52.4829 67.4489 52.4829C70.1456 53.0171 72.8113 53.1743 75.322 51.7914C77.3058 50.6914 78.2047 48.7743 78.5457 46.5743C78.7007 45.6314 78.8247 43.62 78.8247 43.62C78.8247 34.4429 78.8247 34.2543 78.8247 25.0771C80.9944 25.0771 83.1332 25.0771 85.241 25.0771C85.241 22.5314 85.241 20.0486 85.241 17.4714C84.1251 17.4714 79.8786 17.4714 78.8247 17.4714C78.8247 16.3714 78.7627 15.3343 78.8247 14.2971C79.0417 11.3743 80.3125 10.18 83.1642 10.18C84.2491 10.18 85.303 10.2743 86.4189 10.3371C86.4189 8.01143 86.4189 5.68571 86.4189 3.36C86.3259 3.32857 86.2639 3.32857 86.2019 3.29714C83.7842 2.95143 81.3974 2.92 79.0107 3.32857C75.446 3.92571 72.8423 5.87428 71.4784 9.39428C70.7965 11.1857 70.6105 13.04 70.6105 14.9257C70.6105 15.7743 70.6105 16.56 70.6105 17.4714C68.6887 17.4714 66.8909 17.4714 65.0311 17.4714C65.0311 20.0171 65.0311 22.5 65.0311 25.0771C66.9219 25.0771 68.7197 25.0771 70.6415 25.0771C70.6415 34.2857 70.6415 42.5514 70.6415 42.5514Z" fill="#300D38"/>
<path d="M218 20.7714C218 22.0286 217.008 23.0343 215.768 23.0343C214.528 23.0343 213.536 22.06 213.536 20.7714C213.536 19.4829 214.528 18.54 215.799 18.54C217.008 18.54 218 19.5143 218 20.7714ZM214.063 20.7714C214.063 21.7457 214.776 22.5629 215.768 22.5629C216.729 22.5629 217.411 21.7772 217.411 20.8029C217.411 19.8286 216.698 19.0114 215.737 19.0114C214.807 18.98 214.063 19.7972 214.063 20.7714ZM215.396 21.9343H214.9V19.7029C215.086 19.6714 215.396 19.64 215.737 19.64C216.171 19.64 216.326 19.7029 216.481 19.7972C216.605 19.8914 216.698 20.08 216.698 20.2686C216.698 20.5514 216.512 20.7086 216.233 20.8029V20.8343C216.419 20.8972 216.574 21.0543 216.636 21.3686C216.698 21.7143 216.76 21.84 216.791 21.9029H216.264C216.202 21.84 216.171 21.62 216.109 21.3686C216.078 21.1486 215.954 21.0229 215.644 21.0229H215.427V21.9029H215.396V21.9343ZM215.427 20.6772H215.644C215.923 20.6772 216.14 20.5829 216.14 20.3314C216.14 20.1429 216.016 19.9857 215.675 19.9857C215.551 19.9857 215.458 19.9857 215.396 20.0172V20.6772H215.427Z" fill="#300D38"/>
</g>
<defs>
<clipPath id="clip0_730_2603">
<rect width="218" height="55" fill="white" transform="translate(0 0.5)"/>
</clipPath>
</defs>
</svg>
