<svg width="218" height="54" viewBox="0 0 218 54" fill="none" xmlns="http://www.w3.org/2000/svg">
<g clip-path="url(#clip0_730_2617)">
<path d="M53.6285 0L31.5336 15.336L36.2529 18.63L48.2657 10.26V43.74L28.1014 29.7H42.9028L0 0V54L22.095 38.664L17.3756 35.37L5.36285 43.74V10.26L25.5272 24.3H10.7257L53.6285 54V0Z" fill="#660CD7"/>
<path d="M88.0045 40.5V22.95L80.4429 35.478H79.853L72.2914 23.004V40.5H67.0358V13.5H72.4523L80.1748 26.244L87.8436 13.5H93.2601V40.5H88.0045Z" fill="#070040"/>
<path fill-rule="evenodd" clip-rule="evenodd" d="M111.494 34.5598L115.462 36.8818C113.639 39.5278 110.797 40.9858 107.096 40.9858C100.661 40.9858 96.5851 36.5578 96.5851 30.7798C96.5851 25.0558 100.661 20.5738 106.721 20.5738C112.406 20.5738 116.428 25.1098 116.428 30.7798C116.428 31.5358 116.374 32.1838 116.213 32.8318H101.787C102.538 35.4238 104.629 36.5038 107.204 36.5038C109.134 36.5038 110.636 35.6938 111.494 34.5598ZM106.721 25.1638C104.093 25.1638 102.27 26.5678 101.68 29.0518H111.494C110.904 26.2978 108.812 25.1638 106.721 25.1638Z" fill="#070040"/>
<path fill-rule="evenodd" clip-rule="evenodd" d="M138.844 40.5H133.91V38.232C132.516 40.014 130.478 41.04 127.69 41.04C122.541 41.04 118.358 36.612 118.358 30.834C118.358 25.11 122.595 20.628 127.69 20.628C130.478 20.628 132.516 21.654 133.91 23.436V13.5H138.844V40.5ZM128.601 25.38C125.544 25.38 123.292 27.594 123.292 30.834C123.292 34.074 125.544 36.288 128.601 36.288C131.658 36.288 133.91 34.074 133.91 30.834C133.91 27.594 131.658 25.38 128.601 25.38Z" fill="#070040"/>
<path fill-rule="evenodd" clip-rule="evenodd" d="M162.494 40.4998H157.561V38.2318C156.166 39.9598 154.128 41.0398 151.34 41.0398C146.245 41.0398 142.008 36.6118 142.008 30.8338C142.008 25.1098 146.245 20.6278 151.34 20.6278C154.128 20.6278 156.22 21.7078 157.561 23.4358V21.1678H162.494V21.2218V40.4998ZM152.251 25.3798C149.248 25.3798 146.942 27.5938 146.942 30.8338C146.942 34.0738 149.195 36.2878 152.251 36.2878C155.255 36.2878 157.561 34.0738 157.561 30.8338C157.561 27.5938 155.308 25.3798 152.251 25.3798Z" fill="#070040"/>
<path fill-rule="evenodd" clip-rule="evenodd" d="M177.725 41.04C174.936 41.04 172.899 40.014 171.504 38.232V40.5H166.57V13.5H171.504V23.49C172.899 21.708 174.936 20.682 177.725 20.682C182.873 20.682 187.056 25.11 187.056 30.834C187.056 36.558 182.82 41.04 177.725 41.04ZM176.813 25.38C173.81 25.38 171.504 27.594 171.504 30.834C171.504 34.074 173.757 36.288 176.813 36.288C179.87 36.288 182.123 34.074 182.123 30.834C182.123 27.594 179.87 25.38 176.813 25.38Z" fill="#070040"/>
<path d="M195.101 12.3119V40.4999H190.167V12.3119H195.101Z" fill="#070040"/>
<path fill-rule="evenodd" clip-rule="evenodd" d="M212.852 34.5598L216.82 36.8818C214.997 39.5278 212.154 40.9858 208.454 40.9858C202.019 40.9858 197.943 36.5578 197.943 30.7798C197.943 25.0558 202.019 20.5738 208.079 20.5738C213.763 20.5738 217.785 25.1098 217.785 30.7798C217.785 31.5358 217.732 32.1838 217.571 32.8318H203.145C203.842 35.4238 205.987 36.5038 208.561 36.5038C210.492 36.5038 211.994 35.6938 212.852 34.5598ZM208.079 25.1638C205.451 25.1638 203.627 26.5678 203.038 29.0518H212.852C212.262 26.2978 210.17 25.1638 208.079 25.1638Z" fill="#070040"/>
</g>
<defs>
<clipPath id="clip0_730_2617">
<rect width="218" height="54" fill="white"/>
</clipPath>
</defs>
</svg>
