<svg width="218" height="38" viewBox="0 0 218 38" fill="none" xmlns="http://www.w3.org/2000/svg">
<g clip-path="url(#clip0_730_2629)">
<path d="M22.6015 17.0696H13.7051L15.6287 8.30217H23.8838C26.6088 8.30217 28.2118 9.75 28.2118 11.9217C28.2118 14.6565 26.2081 17.0696 22.6015 17.0696ZM37.4287 10.9565C37.4287 4.92391 32.7801 0.5 24.6853 0.5H8.09485L0 37.5H9.21691L12.0221 24.7913H17.3919L22.7618 37.5H31.9787L26.2882 24.1478C33.1007 23.1022 37.4287 17.5522 37.4287 10.9565Z" fill="#131415"/>
<path d="M53.2979 23.6652L61.2325 9.9913L64.1979 23.6652H53.2979ZM57.4655 0.5L36.0663 37.5H45.2832L48.8898 31.387H65.9611L67.3236 37.5H76.5406L68.3656 0.5H57.4655ZM102.829 17.0696H94.6538L96.5773 8.30217H103.71C106.516 8.30217 108.199 9.66957 108.199 11.9217C108.199 14.6565 106.115 17.0696 102.829 17.0696ZM104.672 0.5H89.0435L80.9486 37.5H90.1656L92.9707 24.7913H103.23C112.046 24.7913 117.335 18.1152 117.335 11.1174C117.335 4.92391 112.446 0.5 104.672 0.5Z" fill="#131415"/>
<path d="M135.128 0.5H125.911L117.816 37.5H127.033L135.128 0.5Z" fill="#131415"/>
<path d="M201.169 0.5H172.076C172.557 0.982609 172.957 1.38478 173.358 1.94783C176.644 5.88913 178.327 10.8761 178.327 16.3457C178.327 24.7913 174.801 32.4326 169.11 37.5804H186.903L195.399 16.5065H184.819L186.582 8.30217H207.581L196.521 37.5H200.849C210.947 37.5804 217.76 29.1348 217.76 19C217.76 8.86522 211.268 0.5 201.169 0.5Z" fill="#E95F26"/>
<path d="M149.875 29.7783H144.746L149.474 8.22174H154.283C159.573 8.22174 162.538 12.163 162.538 17.15C162.538 23.8261 157.81 29.7783 149.875 29.7783ZM168.309 6.53261C165.183 2.67174 159.974 0.5 153.802 0.5H142.021L133.846 37.5H148.753C154.524 37.5 158.932 36.213 162.378 34.1217C169.271 29.9391 171.675 22.5391 171.675 16.2652C171.675 12.4043 170.393 9.10652 168.309 6.53261Z" fill="#131415"/>
</g>
<defs>
<clipPath id="clip0_730_2629">
<rect width="218" height="37" fill="white" transform="translate(0 0.5)"/>
</clipPath>
</defs>
</svg>
